<?xml version="1.0" encoding="UTF-8"?>
<svg xmlns="http://www.w3.org/2000/svg" xmlns:xlink="http://www.w3.org/1999/xlink" width="500pt" height="500pt" viewBox="0 0 500 500" version="1.1">
<g id="surface1">
<path style=" stroke:none;fill-rule:nonzero;fill:#EE3E54;fill-opacity:1;" d="M 65 135 C 59.476563 135 55 139.476563 55 145 C 55 150.523438 59.476563 155 65 155 C 70.523438 155 75 150.523438 75 145 C 75 139.476563 70.523438 135 65 135 Z "/>
<path style=" stroke:none;fill-rule:nonzero;fill:#F1BC19;fill-opacity:1;" d="M 385 60 C 382.238281 60 380 62.238281 380 65 C 380 67.761719 382.238281 70 385 70 C 387.761719 70 390 67.761719 390 65 C 390 62.238281 387.761719 60 385 60 Z "/>
<path style=" stroke:none;fill-rule:nonzero;fill:#FCE0A2;fill-opacity:1;" d="M 250 65 C 147.828125 65 65 147.828125 65 250 C 65 352.171875 147.828125 435 250 435 C 352.171875 435 435 352.171875 435 250 C 435 147.828125 352.171875 65 250 65 Z "/>
<path style=" stroke:none;fill-rule:nonzero;fill:#F1BC19;fill-opacity:1;" d="M 415 55 C 403.953125 55 395 63.953125 395 75 C 395 86.046875 403.953125 95 415 95 C 426.046875 95 435 86.046875 435 75 C 435 63.953125 426.046875 55 415 55 Z "/>
<path style=" stroke:none;fill-rule:nonzero;fill:#EE3E54;fill-opacity:1;" d="M 435 110 C 429.476563 110 425 114.476563 425 120 C 425 125.523438 429.476563 130 435 130 C 440.523438 130 445 125.523438 445 120 C 445 114.476563 440.523438 110 435 110 Z "/>
<path style=" stroke:none;fill-rule:nonzero;fill:#FBCD59;fill-opacity:1;" d="M 405 370 C 399.476563 370 395 374.476563 395 380 C 395 385.523438 399.476563 390 405 390 C 410.523438 390 415 385.523438 415 380 C 415 374.476563 410.523438 370 405 370 Z M 75 295 C 63.953125 295 55 303.953125 55 315 C 55 326.046875 63.953125 335 75 335 C 86.046875 335 95 326.046875 95 315 C 95 303.953125 86.046875 295 75 295 Z "/>
<path style=" stroke:none;fill-rule:nonzero;fill:#EE3E54;fill-opacity:1;" d="M 125 425 C 119.476563 425 115 429.476563 115 435 C 115 440.523438 119.476563 445 125 445 C 130.523438 445 135 440.523438 135 435 C 135 429.476563 130.523438 425 125 425 Z "/>
<path style=" stroke:none;fill-rule:nonzero;fill:#FFFFFF;fill-opacity:1;" d="M 92.5 255 C 85.597656 255 80 260.597656 80 267.5 C 80 274.402344 85.597656 280 92.5 280 C 99.402344 280 105 274.402344 105 267.5 C 105 260.597656 99.402344 255 92.5 255 Z "/>
<path style=" stroke:none;fill-rule:nonzero;fill:#F1BC19;fill-opacity:1;" d="M 105 330 C 102.238281 330 100 332.238281 100 335 C 100 337.761719 102.238281 340 105 340 C 107.761719 340 110 337.761719 110 335 C 110 332.238281 107.761719 330 105 330 Z "/>
<path style=" stroke:none;fill-rule:nonzero;fill:#FFFFFF;fill-opacity:1;" d="M 400 165 C 397.238281 165 395 167.238281 395 170 C 395 172.761719 397.238281 175 400 175 C 402.761719 175 405 172.761719 405 170 C 405 167.238281 402.761719 165 400 165 Z "/>
<path style=" stroke:none;fill-rule:nonzero;fill:#FEFDEF;fill-opacity:1;" d="M 231.261719 351.5 C 215.949219 351.5 203.5 339.046875 203.5 323.734375 L 203.5 191.265625 C 203.5 175.953125 215.953125 163.5 231.261719 163.5 L 348.734375 163.5 C 364.046875 163.5 376.496094 175.953125 376.496094 191.265625 L 376.496094 323.734375 C 376.496094 339.046875 364.039063 351.5 348.734375 351.5 Z "/>
<path style=" stroke:none;fill-rule:nonzero;fill:#472B29;fill-opacity:1;" d="M 348.734375 167 C 362.113281 167 373 177.886719 373 191.265625 L 373 323.738281 C 373 337.121094 362.113281 348.003906 348.734375 348.003906 L 231.265625 348.003906 C 217.886719 348.003906 207 337.121094 207 323.738281 L 207 191.261719 C 207 177.878906 217.886719 166.996094 231.265625 166.996094 L 348.734375 166.996094 M 348.734375 160 L 231.265625 160 C 213.996094 160 200 173.996094 200 191.261719 L 200 323.734375 C 200 341.003906 213.996094 355 231.265625 355 L 348.738281 355 C 366.003906 355 380 341.003906 380 323.738281 L 380 191.261719 C 380 173.996094 366.003906 160 348.734375 160 Z "/>
<path style=" stroke:none;fill-rule:nonzero;fill:#78CDD4;fill-opacity:1;" d="M 341.558594 312.5 L 238.433594 312.5 C 229.636719 312.5 222.5 305.363281 222.5 296.558594 L 222.5 198.441406 C 222.5 189.640625 229.636719 182.5 238.433594 182.5 L 341.558594 182.5 C 350.359375 182.5 357.5 189.636719 357.5 198.441406 L 357.5 296.566406 C 357.5 305.363281 350.363281 312.5 341.558594 312.5 Z "/>
<path style=" stroke:none;fill-rule:nonzero;fill:#B07454;fill-opacity:1;" d="M 341.558594 312.5 C 349.429688 312.5 355.929688 306.78125 357.226563 299.273438 L 305 235 L 270 270 L 270 312.5 Z "/>
<path style=" stroke:none;fill-rule:nonzero;fill:#472B29;fill-opacity:1;" d="M 341.566406 313.75 L 268.75 313.75 L 268.75 269.480469 L 305.09375 233.128906 L 358.554688 298.925781 L 358.460938 299.484375 C 357.035156 307.753906 349.925781 313.75 341.566406 313.75 Z M 271.25 311.25 L 341.566406 311.25 C 348.523438 311.25 354.460938 306.390625 355.890625 299.613281 L 304.90625 236.863281 L 271.25 270.515625 Z "/>
<path style=" stroke:none;fill-rule:nonzero;fill:#FEF6AA;fill-opacity:1;" d="M 327.5 200 C 320.597656 200 315 205.597656 315 212.5 C 315 219.402344 320.597656 225 327.5 225 C 334.402344 225 340 219.402344 340 212.5 C 340 205.597656 334.402344 200 327.5 200 Z "/>
<path style=" stroke:none;fill-rule:nonzero;fill:#472B29;fill-opacity:1;" d="M 340 213.75 C 339.308594 213.75 338.75 213.191406 338.75 212.5 C 338.75 210.183594 338.050781 207.960938 336.730469 206.066406 C 336.335938 205.503906 336.476563 204.71875 337.039063 204.324219 C 337.601563 203.941406 338.378906 204.066406 338.78125 204.640625 C 340.394531 206.953125 341.25 209.675781 341.25 212.5 C 341.25 213.191406 340.691406 213.75 340 213.75 Z M 327.5 226.25 C 319.914063 226.25 313.75 220.085938 313.75 212.5 C 313.75 204.914063 319.914063 198.75 327.5 198.75 C 329.628906 198.75 331.675781 199.226563 333.578125 200.160156 C 334.199219 200.46875 334.453125 201.214844 334.148438 201.835938 C 333.84375 202.464844 333.09375 202.714844 332.480469 202.40625 C 330.921875 201.640625 329.25 201.25 327.503906 201.25 C 321.300781 201.25 316.253906 206.300781 316.253906 212.5 C 316.253906 218.699219 321.300781 223.75 327.503906 223.75 C 331.246094 223.75 334.734375 221.894531 336.835938 218.789063 C 337.226563 218.214844 338 218.074219 338.570313 218.453125 C 339.140625 218.839844 339.296875 219.613281 338.90625 220.191406 C 336.335938 223.984375 332.074219 226.25 327.5 226.25 Z "/>
<path style=" stroke:none;fill-rule:nonzero;fill:#D38B5D;fill-opacity:1;" d="M 289.328125 277.253906 L 255 235 L 222.5 267.5 L 222.5 296.566406 C 222.5 305.363281 229.636719 312.503906 238.433594 312.503906 L 317.964844 312.503906 L 307.453125 299.570313 "/>
<path style=" stroke:none;fill-rule:nonzero;fill:#472B29;fill-opacity:1;" d="M 320.59375 313.75 L 238.441406 313.75 C 228.960938 313.75 221.25 306.039063 221.25 296.558594 L 221.25 266.980469 L 255.09375 233.128906 L 290.300781 276.460938 C 290.734375 276.988281 290.65625 277.785156 290.121094 278.21875 C 289.578125 278.640625 288.796875 278.574219 288.359375 278.035156 L 254.90625 236.863281 L 223.75 268.015625 L 223.75 296.558594 C 223.75 304.660156 230.339844 311.25 238.441406 311.25 L 315.34375 311.25 L 306.488281 300.351563 C 306.054688 299.820313 306.136719 299.023438 306.671875 298.589844 C 307.203125 298.15625 307.988281 298.230469 308.429688 298.773438 Z "/>
<path style=" stroke:none;fill-rule:nonzero;fill:#D38B5D;fill-opacity:1;" d="M 302.503906 293.464844 L 293.164063 281.96875 "/>
<path style=" stroke:none;fill-rule:nonzero;fill:#472B29;fill-opacity:1;" d="M 302.5 294.714844 C 302.136719 294.714844 301.773438 294.558594 301.53125 294.25 L 292.191406 282.753906 C 291.753906 282.226563 291.835938 281.429688 292.371094 280.996094 C 292.90625 280.566406 293.691406 280.636719 294.128906 281.179688 L 303.46875 292.675781 C 303.90625 293.203125 303.824219 294 303.289063 294.433594 C 303.058594 294.625 302.78125 294.714844 302.5 294.714844 Z "/>
<path style=" stroke:none;fill-rule:nonzero;fill:#472B29;fill-opacity:1;" d="M 341.566406 315 L 238.441406 315 C 228.269531 315 220 306.730469 220 296.566406 L 220 225.835938 C 220 224.453125 221.121094 223.335938 222.5 223.335938 C 223.878906 223.335938 225 224.453125 225 225.835938 L 225 296.566406 C 225 303.96875 231.03125 310 238.441406 310 L 341.566406 310 C 348.96875 310 355 303.96875 355 296.566406 L 355 225.941406 C 355 224.558594 356.121094 223.441406 357.5 223.441406 C 358.878906 223.441406 360 224.558594 360 225.941406 L 360 296.566406 C 360 306.730469 351.730469 315 341.566406 315 Z "/>
<path style=" stroke:none;fill-rule:nonzero;fill:#472B29;fill-opacity:1;" d="M 222.5 215.625 C 221.121094 215.625 220 214.503906 220 213.125 L 220 198.433594 C 220 188.269531 228.269531 180 238.441406 180 L 341.566406 180 C 351.730469 180 360 188.269531 360 198.441406 L 360 212.5 C 360 213.878906 358.878906 215 357.5 215 C 356.121094 215 355 213.878906 355 212.5 L 355 198.433594 C 355 191.03125 348.96875 185 341.566406 185 L 238.441406 185 C 231.03125 185 225 191.03125 225 198.441406 L 225 213.128906 C 225 214.503906 223.878906 215.625 222.5 215.625 Z "/>
<path style=" stroke:none;fill-rule:nonzero;fill:#FEFDEF;fill-opacity:1;" d="M 196.261719 336.5 C 180.949219 336.5 168.5 324.046875 168.5 308.734375 L 168.5 176.265625 C 168.5 160.953125 180.953125 148.5 196.261719 148.5 L 313.734375 148.5 C 329.046875 148.5 341.496094 160.953125 341.496094 176.265625 L 341.496094 308.734375 C 341.496094 324.046875 329.039063 336.5 313.734375 336.5 Z "/>
<path style=" stroke:none;fill-rule:nonzero;fill:#472B29;fill-opacity:1;" d="M 313.734375 152 C 327.113281 152 338 162.886719 338 176.265625 L 338 308.738281 C 338 322.121094 327.113281 333.003906 313.734375 333.003906 L 196.265625 333.003906 C 182.886719 333.003906 172 322.121094 172 308.738281 L 172 176.261719 C 172 162.878906 182.886719 151.996094 196.265625 151.996094 L 313.734375 151.996094 M 313.734375 145 L 196.265625 145 C 178.996094 145 165 158.996094 165 176.261719 L 165 308.734375 C 165 326.003906 178.996094 340 196.265625 340 L 313.738281 340 C 331.003906 340 345 326.003906 345 308.738281 L 345 176.261719 C 345 158.996094 331.003906 145 313.734375 145 Z "/>
<path style=" stroke:none;fill-rule:nonzero;fill:#78CDD4;fill-opacity:1;" d="M 306.558594 297.5 L 203.433594 297.5 C 194.636719 297.5 187.5 290.363281 187.5 281.558594 L 187.5 183.441406 C 187.5 174.640625 194.636719 167.5 203.433594 167.5 L 306.558594 167.5 C 315.359375 167.5 322.5 174.636719 322.5 183.441406 L 322.5 281.566406 C 322.5 290.363281 315.363281 297.5 306.558594 297.5 Z "/>
<path style=" stroke:none;fill-rule:nonzero;fill:#472B29;fill-opacity:1;" d="M 322.5 256.875 C 321.121094 256.875 320 255.753906 320 254.375 L 320 237.5 C 320 236.121094 321.121094 235 322.5 235 C 323.878906 235 325 236.121094 325 237.5 L 325 254.375 C 325 255.753906 323.878906 256.875 322.5 256.875 Z "/>
<path style=" stroke:none;fill-rule:nonzero;fill:#B07454;fill-opacity:1;" d="M 306.558594 297.5 C 314.429688 297.5 320.929688 291.78125 322.226563 284.273438 L 270 220 L 235 255 L 235 297.5 Z "/>
<path style=" stroke:none;fill-rule:nonzero;fill:#472B29;fill-opacity:1;" d="M 306.566406 298.75 L 233.75 298.75 L 233.75 254.480469 L 270.09375 218.128906 L 323.554688 283.925781 L 323.460938 284.484375 C 322.035156 292.753906 314.925781 298.75 306.566406 298.75 Z M 236.25 296.25 L 306.566406 296.25 C 313.523438 296.25 319.460938 291.390625 320.890625 284.613281 L 269.90625 221.863281 L 236.25 255.515625 Z "/>
<path style=" stroke:none;fill-rule:nonzero;fill:#FEF6AA;fill-opacity:1;" d="M 292.5 185 C 285.597656 185 280 190.597656 280 197.5 C 280 204.402344 285.597656 210 292.5 210 C 299.402344 210 305 204.402344 305 197.5 C 305 190.597656 299.402344 185 292.5 185 Z "/>
<path style=" stroke:none;fill-rule:nonzero;fill:#472B29;fill-opacity:1;" d="M 305 198.75 C 304.308594 198.75 303.75 198.191406 303.75 197.5 C 303.75 195.183594 303.050781 192.960938 301.730469 191.066406 C 301.335938 190.503906 301.476563 189.71875 302.039063 189.324219 C 302.601563 188.933594 303.378906 189.058594 303.78125 189.640625 C 305.394531 191.953125 306.25 194.675781 306.25 197.5 C 306.25 198.191406 305.691406 198.75 305 198.75 Z M 292.5 211.25 C 284.914063 211.25 278.75 205.085938 278.75 197.5 C 278.75 189.914063 284.914063 183.75 292.5 183.75 C 294.628906 183.75 296.675781 184.226563 298.578125 185.160156 C 299.199219 185.46875 299.453125 186.214844 299.148438 186.835938 C 298.851563 187.453125 298.101563 187.714844 297.480469 187.40625 C 295.921875 186.640625 294.25 186.25 292.503906 186.25 C 286.300781 186.25 281.253906 191.300781 281.253906 197.5 C 281.253906 203.699219 286.300781 208.75 292.503906 208.75 C 296.246094 208.75 299.734375 206.894531 301.835938 203.789063 C 302.230469 203.214844 303.003906 203.066406 303.570313 203.453125 C 304.140625 203.839844 304.296875 204.613281 303.90625 205.191406 C 301.335938 208.984375 297.074219 211.25 292.5 211.25 Z "/>
<path style=" stroke:none;fill-rule:nonzero;fill:#D38B5D;fill-opacity:1;" d="M 254.328125 262.253906 L 220 220 L 187.5 252.5 L 187.5 281.566406 C 187.5 290.363281 194.636719 297.503906 203.433594 297.503906 L 282.964844 297.503906 L 272.453125 284.570313 "/>
<path style=" stroke:none;fill-rule:nonzero;fill:#472B29;fill-opacity:1;" d="M 285.59375 298.75 L 203.441406 298.75 C 193.960938 298.75 186.25 291.039063 186.25 281.558594 L 186.25 251.980469 L 220.09375 218.128906 L 255.300781 261.460938 C 255.734375 261.988281 255.65625 262.785156 255.121094 263.21875 C 254.578125 263.644531 253.796875 263.570313 253.359375 263.035156 L 219.90625 221.863281 L 188.75 253.015625 L 188.75 281.558594 C 188.75 289.660156 195.339844 296.25 203.441406 296.25 L 280.34375 296.25 L 271.488281 285.351563 C 271.054688 284.820313 271.136719 284.023438 271.671875 283.589844 C 272.203125 283.15625 272.988281 283.230469 273.429688 283.773438 Z "/>
<path style=" stroke:none;fill-rule:nonzero;fill:#D38B5D;fill-opacity:1;" d="M 267.503906 278.464844 L 258.164063 266.96875 "/>
<path style=" stroke:none;fill-rule:nonzero;fill:#472B29;fill-opacity:1;" d="M 267.5 279.714844 C 267.136719 279.714844 266.773438 279.558594 266.53125 279.25 L 257.191406 267.753906 C 256.753906 267.226563 256.835938 266.429688 257.371094 265.996094 C 257.90625 265.558594 258.691406 265.636719 259.128906 266.179688 L 268.46875 277.675781 C 268.90625 278.203125 268.824219 279 268.289063 279.433594 C 268.058594 279.625 267.78125 279.714844 267.5 279.714844 Z "/>
<path style=" stroke:none;fill-rule:nonzero;fill:#472B29;fill-opacity:1;" d="M 306.566406 300 L 203.441406 300 C 193.269531 300 185 291.730469 185 281.566406 L 185 210.835938 C 185 209.453125 186.121094 208.335938 187.5 208.335938 C 188.878906 208.335938 190 209.453125 190 210.835938 L 190 281.566406 C 190 288.96875 196.03125 295 203.441406 295 L 306.566406 295 C 313.96875 295 320 288.96875 320 281.566406 L 320 265.941406 C 320 264.558594 321.121094 263.441406 322.5 263.441406 C 323.878906 263.441406 325 264.558594 325 265.941406 L 325 281.566406 C 325 291.730469 316.730469 300 306.566406 300 Z "/>
<path style=" stroke:none;fill-rule:nonzero;fill:#472B29;fill-opacity:1;" d="M 322.5 230 C 321.121094 230 320 228.878906 320 227.5 L 320 183.433594 C 320 176.03125 313.96875 170 306.566406 170 L 203.441406 170 C 196.03125 170 190 176.03125 190 183.441406 L 190 198.128906 C 190 199.511719 188.878906 200.628906 187.5 200.628906 C 186.121094 200.628906 185 199.511719 185 198.128906 L 185 183.441406 C 185 173.269531 193.269531 165 203.441406 165 L 306.566406 165 C 316.730469 165 325 173.269531 325 183.441406 L 325 227.5 C 325 228.878906 323.878906 230 322.5 230 Z "/>
<path style=" stroke:none;fill-rule:nonzero;fill:#FEFDEF;fill-opacity:1;" d="M 161.261719 321.5 C 145.949219 321.5 133.5 309.046875 133.5 293.734375 L 133.5 161.265625 C 133.5 145.953125 145.953125 133.5 161.261719 133.5 L 278.734375 133.5 C 294.046875 133.5 306.496094 145.953125 306.496094 161.265625 L 306.496094 293.734375 C 306.496094 309.046875 294.039063 321.5 278.734375 321.5 Z "/>
<path style=" stroke:none;fill-rule:nonzero;fill:#472B29;fill-opacity:1;" d="M 278.734375 137 C 292.113281 137 303 147.886719 303 161.265625 L 303 293.738281 C 303 307.121094 292.113281 318.003906 278.734375 318.003906 L 161.265625 318.003906 C 147.886719 318.003906 137 307.121094 137 293.738281 L 137 161.261719 C 137 147.878906 147.886719 136.996094 161.265625 136.996094 L 278.734375 136.996094 M 278.734375 130 L 161.265625 130 C 143.996094 130 130 143.996094 130 161.261719 L 130 293.734375 C 130 311.003906 143.996094 325 161.265625 325 L 278.738281 325 C 296.003906 325 310 311.003906 310 293.738281 L 310 161.261719 C 310 143.996094 296.003906 130 278.734375 130 Z "/>
<path style=" stroke:none;fill-rule:nonzero;fill:#78CDD4;fill-opacity:1;" d="M 271.558594 282.5 L 168.433594 282.5 C 159.636719 282.5 152.5 275.363281 152.5 266.558594 L 152.5 168.441406 C 152.5 159.640625 159.636719 152.5 168.433594 152.5 L 271.558594 152.5 C 280.359375 152.5 287.5 159.636719 287.5 168.441406 L 287.5 266.566406 C 287.5 275.363281 280.363281 282.5 271.558594 282.5 Z "/>
<path style=" stroke:none;fill-rule:nonzero;fill:#472B29;fill-opacity:1;" d="M 287.5 241.875 C 286.121094 241.875 285 240.753906 285 239.375 L 285 220 C 285 218.621094 286.121094 217.5 287.5 217.5 C 288.878906 217.5 290 218.621094 290 220 L 290 239.375 C 290 240.753906 288.878906 241.875 287.5 241.875 Z M 287.5 207.5 C 286.121094 207.5 285 206.378906 285 205 L 285 195 C 285 193.621094 286.121094 192.5 287.5 192.5 C 288.878906 192.5 290 193.621094 290 195 L 290 205 C 290 206.378906 288.878906 207.5 287.5 207.5 Z "/>
<path style=" stroke:none;fill-rule:nonzero;fill:#B07454;fill-opacity:1;" d="M 271.558594 282.5 C 279.429688 282.5 285.929688 276.78125 287.226563 269.273438 L 235 205 L 200 240 L 200 282.5 Z "/>
<path style=" stroke:none;fill-rule:nonzero;fill:#472B29;fill-opacity:1;" d="M 271.566406 283.75 L 198.75 283.75 L 198.75 239.480469 L 235.09375 203.128906 L 288.554688 268.925781 L 288.460938 269.484375 C 287.035156 277.753906 279.925781 283.75 271.566406 283.75 Z M 201.25 281.25 L 271.566406 281.25 C 278.523438 281.25 284.460938 276.390625 285.890625 269.613281 L 234.90625 206.863281 L 201.25 240.515625 Z "/>
<path style=" stroke:none;fill-rule:nonzero;fill:#FEF6AA;fill-opacity:1;" d="M 257.5 170 C 250.597656 170 245 175.597656 245 182.5 C 245 189.402344 250.597656 195 257.5 195 C 264.402344 195 270 189.402344 270 182.5 C 270 175.597656 264.402344 170 257.5 170 Z "/>
<path style=" stroke:none;fill-rule:nonzero;fill:#472B29;fill-opacity:1;" d="M 270 183.75 C 269.308594 183.75 268.75 183.191406 268.75 182.5 C 268.75 180.183594 268.050781 177.960938 266.730469 176.066406 C 266.335938 175.503906 266.476563 174.71875 267.039063 174.324219 C 267.601563 173.941406 268.378906 174.058594 268.78125 174.640625 C 270.394531 176.953125 271.25 179.675781 271.25 182.5 C 271.25 183.191406 270.691406 183.75 270 183.75 Z M 257.5 196.25 C 249.914063 196.25 243.75 190.085938 243.75 182.5 C 243.75 174.914063 249.914063 168.75 257.5 168.75 C 259.628906 168.75 261.675781 169.226563 263.578125 170.160156 C 264.199219 170.46875 264.453125 171.214844 264.148438 171.835938 C 263.84375 172.464844 263.09375 172.714844 262.480469 172.40625 C 260.921875 171.640625 259.25 171.25 257.503906 171.25 C 251.300781 171.25 246.253906 176.300781 246.253906 182.5 C 246.253906 188.699219 251.300781 193.75 257.503906 193.75 C 261.246094 193.75 264.734375 191.894531 266.835938 188.789063 C 267.226563 188.210938 268 188.070313 268.570313 188.453125 C 269.140625 188.839844 269.296875 189.613281 268.90625 190.191406 C 266.335938 193.984375 262.074219 196.25 257.5 196.25 Z "/>
<path style=" stroke:none;fill-rule:nonzero;fill:#D38B5D;fill-opacity:1;" d="M 219.328125 247.253906 L 185 205 L 152.5 237.5 L 152.5 266.566406 C 152.5 275.363281 159.636719 282.503906 168.433594 282.503906 L 247.964844 282.503906 L 237.453125 269.570313 "/>
<path style=" stroke:none;fill-rule:nonzero;fill:#472B29;fill-opacity:1;" d="M 250.59375 283.75 L 168.441406 283.75 C 158.960938 283.75 151.25 276.039063 151.25 266.558594 L 151.25 236.980469 L 185.09375 203.128906 L 220.300781 246.460938 C 220.734375 246.988281 220.65625 247.785156 220.121094 248.21875 C 219.585938 248.644531 218.789063 248.570313 218.359375 248.035156 L 184.90625 206.863281 L 153.75 238.015625 L 153.75 266.558594 C 153.75 274.660156 160.339844 281.25 168.441406 281.25 L 245.34375 281.25 L 236.488281 270.351563 C 236.054688 269.820313 236.136719 269.023438 236.671875 268.589844 C 237.199219 268.160156 237.988281 268.230469 238.429688 268.773438 Z "/>
<path style=" stroke:none;fill-rule:nonzero;fill:#D38B5D;fill-opacity:1;" d="M 232.503906 263.464844 L 223.164063 251.96875 "/>
<path style=" stroke:none;fill-rule:nonzero;fill:#472B29;fill-opacity:1;" d="M 232.5 264.714844 C 232.136719 264.714844 231.773438 264.558594 231.53125 264.25 L 222.191406 252.753906 C 221.753906 252.226563 221.835938 251.429688 222.371094 250.996094 C 222.90625 250.558594 223.691406 250.636719 224.128906 251.179688 L 233.46875 262.675781 C 233.90625 263.203125 233.824219 264 233.289063 264.433594 C 233.058594 264.625 232.78125 264.714844 232.5 264.714844 Z "/>
<path style=" stroke:none;fill-rule:nonzero;fill:#472B29;fill-opacity:1;" d="M 271.566406 285 L 168.441406 285 C 158.269531 285 150 276.730469 150 266.566406 L 150 195.835938 C 150 194.453125 151.121094 193.335938 152.5 193.335938 C 153.878906 193.335938 155 194.453125 155 195.835938 L 155 266.566406 C 155 273.96875 161.03125 280 168.441406 280 L 271.566406 280 C 278.96875 280 285 273.96875 285 266.566406 L 285 250.941406 C 285 249.558594 286.121094 248.441406 287.5 248.441406 C 288.878906 248.441406 290 249.558594 290 250.941406 L 290 266.566406 C 290 276.730469 281.730469 285 271.566406 285 Z "/>
<path style=" stroke:none;fill-rule:nonzero;fill:#472B29;fill-opacity:1;" d="M 152.5 185.625 C 151.121094 185.625 150 184.503906 150 183.125 L 150 168.433594 C 150 158.269531 158.269531 150 168.441406 150 L 271.566406 150 C 281.730469 150 290 158.269531 290 168.441406 L 290 182.5 C 290 183.878906 288.878906 185 287.5 185 C 286.121094 185 285 183.878906 285 182.5 L 285 168.433594 C 285 161.03125 278.96875 155 271.566406 155 L 168.441406 155 C 161.03125 155 155 161.03125 155 168.441406 L 155 183.128906 C 155 184.503906 153.878906 185.625 152.5 185.625 Z "/>
</g>
</svg>
